<?xml version="1.0" encoding="utf-8"?>
<!-- Generator: Adobe Illustrator 22.1.0, SVG Export Plug-In . SVG Version: 6.00 Build 0)  -->
<svg version="1.1" id="Layer_1" xmlns="http://www.w3.org/2000/svg" xmlns:xlink="http://www.w3.org/1999/xlink" x="0px" y="0px"
	 viewBox="0 0 708.1 357.3" style="enable-background:new 0 0 708.1 357.3;" xml:space="preserve">
<style type="text/css">
	.st0{fill:#939598;}
</style>
<g>
	<g>
		<path class="st0" d="M200.3,293.7h0.9h0.9h0.9v0.9v25.3v0.9H202h-0.9h-0.9v-0.9v-25.3V293.7z"/>
		<path class="st0" d="M216.3,293.7h0.5l0.2,0.4l14.3,21.4v-20.9v-0.9h0.9h0.9h0.9v0.9v14.6v10.6v0.9H233h-0.9h-0.5l-0.2-0.4
			L217.1,299v20.9v0.9h-0.9h-0.9h-0.9v-0.9v-25.3v-0.9h0.9H216.3z"/>
		<path class="st0" d="M245.5,293.6h0.9H266h0.9v0.9v0.9v0.9H266h-8.5v23.6v0.9h-0.8h-0.9h-0.8v-0.9v-23.6h-8.5h-0.9v-0.9v-0.9
			V293.6z"/>
		<path class="st0" d="M278.4,293.6h0.9h14.5h0.8v0.9v0.9v0.9h-0.8h-12.7V308h12.7h0.8v0.9v0.9v0.9h-0.8h-12.7v7.5h12.7h0.8v0.9v0.9
			v0.9h-0.8h-14.5h-0.9v-0.9v-25.5V293.6z"/>
		<path class="st0" d="M306.2,293.6h0.9h5.9c2.9,0,5.3,0.9,7,2.8c1.6,1.7,2.4,3.7,2.4,6.1c0,2.4-0.8,4.5-2.4,6.1
			c-0.7,0.7-1.4,1.2-2.2,1.7l6.2,9l0.9,1.4h-1.7h-1.1h-0.5l-0.3-0.4l-6.2-9.1c-0.7,0.1-1.4,0.2-2.2,0.2h-4.2v8.4v0.9H308h-0.9h-0.9
			v-0.9v-25.3V293.6z M308.8,308.9h4.2c2.2,0,3.9-0.7,5.1-2c1.1-1.2,1.6-2.6,1.6-4.3s-0.6-3.1-1.6-4.3c-1.3-1.3-3-2-5.1-2h-4.2
			V308.9z"/>
		<path class="st0" d="M336.4,293.7h0.9h0.9h0.9v0.9v25.3v0.9h-0.9h-0.9h-0.9v-0.9v-25.3V293.7z"/>
		<path class="st0" d="M373.7,300.2c1.1,2.1,1.7,4.4,1.7,6.8c0,2.5-0.6,4.7-1.7,6.8c-1.1,2.1-2.7,3.8-4.7,5c-2,1.2-4.2,1.8-6.5,1.8
			s-4.5-0.6-6.5-1.8c-2-1.2-3.6-2.9-4.7-5c-1.1-2.1-1.7-4.4-1.7-6.8c0-2.5,0.6-4.7,1.7-6.8c1.1-2.1,2.7-3.8,4.7-5
			c2-1.2,4.2-1.8,6.5-1.8s4.5,0.6,6.5,1.8C371,296.5,372.6,298.1,373.7,300.2z M352.2,307.1c0,3.1,1,5.7,3,7.8
			c2,2.2,4.5,3.2,7.3,3.2c2.8,0,5.3-1.1,7.3-3.2c2-2.2,3-4.8,3-7.8s-1-5.7-3-7.8c-2-2.2-4.5-3.2-7.3-3.2c-2.8,0-5.3,1.1-7.3,3.2
			C353.2,301.4,352.2,304,352.2,307.1z"/>
		<path class="st0" d="M387,293.6h0.9h5.9c2.9,0,5.3,0.9,7,2.8c1.6,1.7,2.4,3.7,2.4,6.1c0,2.4-0.8,4.5-2.4,6.1
			c-0.7,0.7-1.4,1.2-2.2,1.7l6.2,9l0.9,1.4H404H403h-0.5l-0.3-0.4l-6.2-9.1c-0.7,0.1-1.4,0.2-2.2,0.2h-4.2v8.4v0.9h-0.9h-0.9H387
			v-0.9v-25.3V293.6z M389.6,308.9h4.2c2.2,0,3.9-0.7,5.1-2c1.1-1.2,1.6-2.6,1.6-4.3s-0.6-3.1-1.6-4.3c-1.3-1.3-3-2-5.1-2h-4.2
			V308.9z"/>
		<path class="st0" d="M428.7,293.8c1.1,0.4,2,1,2.6,1.6c0.7,0.7,1.2,1.4,1.5,2.2c0.4,0.8,0.6,1.6,0.6,2.4l0,0.9l-0.8,0.1l-0.9,0
			l-0.9,0.1l-0.1-0.9c0-0.5-0.1-0.9-0.4-1.4c-0.2-0.5-0.5-0.9-0.9-1.4c-0.4-0.5-1-0.8-1.8-1.1c-0.8-0.3-1.7-0.4-2.7-0.5
			c-1.8,0-3.2,0.4-4.3,1.2c-0.9,0.8-1.4,1.8-1.5,3.1c0,0.9,0.2,1.6,0.5,2.1c0.3,0.6,0.7,1.1,1.4,1.5c0.8,0.6,2.4,1.4,4.7,2.2
			c0.9,0.3,1.6,0.6,1.9,0.7c0.4,0.1,0.9,0.4,1.6,0.7c0.7,0.3,1.3,0.7,1.8,1.1c1.9,1.4,2.8,3.2,2.8,5.5c0,0.8-0.1,1.5-0.5,2.3
			c-0.4,0.8-0.9,1.5-1.6,2.2s-1.6,1.3-2.8,1.7c-1.2,0.4-2.5,0.7-4,0.7c-2.6,0-4.8-0.8-6.6-2.2c-0.9-0.8-1.7-1.7-2.2-2.8
			c-0.6-1.1-0.8-2.3-0.8-3.6l0-0.9h0.9l0.9,0l0.9,0l0,0.9c0,1.8,0.6,3.2,2,4.3c1.4,1.1,3,1.7,4.9,1.7c1.2,0,2.2-0.2,3.1-0.5
			c0.9-0.3,1.5-0.7,2-1.2c0.4-0.5,0.8-0.9,1-1.4c0.2-0.4,0.3-0.8,0.3-1.2c0-0.8-0.1-1.5-0.4-2c-0.3-0.5-0.7-1-1.3-1.4
			c-0.8-0.6-2.4-1.3-4.7-2.1c-0.9-0.3-1.5-0.5-1.9-0.7c-0.4-0.2-1-0.4-1.7-0.8c-0.7-0.3-1.3-0.7-1.8-1.1c-1.9-1.4-2.9-3.4-2.9-5.8
			c0-2.2,0.9-3.8,2.5-5.1c1.5-1.2,3.5-1.8,5.9-1.8C426.4,293.2,427.6,293.4,428.7,293.8z"/>
	</g>
	<g>
		<path class="st0" d="M469.1,293.7h0.9h14.5h0.8v0.9v0.8v0.9h-0.8h-12.7v12h12.7h0.8v0.9v0.8v0.9h-0.8h-12.7v8.8v0.9h-0.9H470h-0.9
			v-0.9v-25.3V293.7z"/>
		<path class="st0" d="M496.9,293.6h0.9h14.5h0.8v0.9v0.9v0.9h-0.8h-12.7V308h12.7h0.8v0.9v0.9v0.9h-0.8h-12.7v7.5h12.7h0.8v0.9v0.9
			v0.9h-0.8h-14.5h-0.9v-0.9v-25.5V293.6z"/>
		<path class="st0" d="M536.1,293.8c1.1,0.4,2,1,2.6,1.6c0.7,0.7,1.2,1.4,1.5,2.2c0.4,0.8,0.6,1.6,0.6,2.4l0,0.9l-0.8,0.1l-0.9,0
			l-0.9,0.1l-0.1-0.9c0-0.5-0.1-0.9-0.4-1.4c-0.2-0.5-0.5-0.9-0.9-1.4c-0.4-0.5-1-0.8-1.8-1.1c-0.8-0.3-1.7-0.4-2.7-0.5
			c-1.8,0-3.2,0.4-4.3,1.2c-0.9,0.8-1.4,1.8-1.5,3.1c0,0.9,0.2,1.6,0.5,2.1c0.3,0.6,0.7,1.1,1.4,1.5c0.8,0.6,2.4,1.4,4.7,2.2
			c0.9,0.3,1.6,0.6,2,0.7c0.4,0.1,0.9,0.4,1.6,0.7c0.7,0.3,1.3,0.7,1.8,1.1c1.9,1.4,2.8,3.2,2.8,5.5c0,0.8-0.1,1.5-0.5,2.3
			c-0.4,0.8-0.9,1.5-1.6,2.2c-0.7,0.7-1.6,1.3-2.8,1.7c-1.2,0.4-2.5,0.7-4,0.7c-2.6,0-4.8-0.8-6.6-2.2c-0.9-0.8-1.7-1.7-2.2-2.8
			c-0.6-1.1-0.8-2.3-0.8-3.6l0-0.9h0.9l0.9,0l0.9,0l0,0.9c0,1.8,0.6,3.2,2,4.3c1.4,1.1,3,1.7,4.9,1.7c1.2,0,2.2-0.2,3.1-0.5
			c0.9-0.3,1.6-0.7,2-1.2c0.4-0.5,0.8-0.9,1-1.4c0.2-0.4,0.3-0.8,0.3-1.2c0-0.8-0.1-1.5-0.4-2c-0.3-0.5-0.7-1-1.3-1.4
			c-0.8-0.6-2.4-1.3-4.7-2.1c-0.9-0.3-1.5-0.5-1.9-0.7c-0.4-0.2-1-0.4-1.7-0.8s-1.3-0.7-1.8-1.1c-1.9-1.4-2.9-3.4-2.9-5.8
			c0-2.2,0.9-3.8,2.5-5.1c1.5-1.2,3.5-1.8,5.9-1.8C533.8,293.2,535,293.4,536.1,293.8z"/>
		<path class="st0" d="M549.5,293.6h0.9H570h0.9v0.9v0.9v0.9H570h-8.5v23.6v0.9h-0.8h-0.9h-0.8v-0.9v-23.6h-8.5h-0.9v-0.9v-0.9
			V293.6z"/>
		<path class="st0" d="M582.4,293.7h0.9h0.9h0.9v0.9v25.3v0.9h-0.9h-0.9h-0.9v-0.9v-25.3V293.7z"/>
		<path class="st0" d="M607.3,320.8h-0.6l-0.2-0.6l-9.4-25.4l-0.4-1.2h1.3h0.9h0.6l0.2,0.6l8,21.8l8-21.8l0.2-0.6h0.6h0.9h1.3
			l-0.5,1.2l-9.3,25.4l-0.2,0.6h-0.6h-0.4H607.3z"/>
		<path class="st0" d="M633.2,293.6h0.6h0.8h0.6l0.2,0.6l9.3,25.4l0.5,1.2H644h-0.9h-0.6l-0.2-0.6l-2.5-6.7h-11.1l-2.5,6.7l-0.2,0.6
			h-0.6h-0.9h-1.3l0.4-1.2l9.4-25.4L633.2,293.6z M629.7,310.8h9.2l-4.6-12.4L629.7,310.8z"/>
		<path class="st0" d="M656.8,293.7h0.9h0.9h0.9v0.9v23.6h14.1h0.9v0.9v0.9v0.9h-0.9h-15.9h-0.9v-0.9v-25.3V293.7z"/>
	</g>
	<path d="M184.8,208.9c3.8,6.9,5.6,14.4,5.6,22.4c0,8-1.9,15.5-5.6,22.4c-3.8,6.9-8.9,12.3-15.4,16.4c-6.5,4-13.6,6-21.4,6
		c-7.7,0-14.9-2-21.4-6c-6.5-4-11.6-9.5-15.4-16.4c-3.8-6.9-5.6-14.4-5.6-22.4c0-8,1.9-15.5,5.6-22.4c3.8-6.9,8.9-12.3,15.4-16.4
		c6.5-4,13.6-6,21.4-6c7.7,0,14.9,2,21.4,6C175.9,196.6,181,202,184.8,208.9z M114.2,231.3c0,10,3.3,18.6,9.9,25.6
		c6.6,7,14.6,10.6,23.8,10.6c9.3,0,17.2-3.5,23.8-10.6c6.6-7,9.9-15.6,9.9-25.6c0-10-3.3-18.6-9.9-25.6c-6.6-7-14.6-10.6-23.8-10.6
		c-9.3,0-17.2,3.5-23.8,10.6C117.6,212.8,114.2,221.3,114.2,231.3z"/>
	<path d="M199.6,186.9h2.9h2.9h2.9v3v52.4c0,8,2.5,14.4,7.5,19.1c4.5,4.1,10.1,6.2,16.6,6.2c6.5,0,12.1-2.1,16.6-6.2
		c5-4.7,7.5-11,7.5-19.1v-52.4v-3h2.9h2.9h2.9v3v52.4c0,10.6-3.4,19-10.2,25.3c-6.1,5.7-13.6,8.6-22.5,8.6c-8.8,0-16.3-2.9-22.5-8.6
		c-6.8-6.3-10.2-14.7-10.2-25.3v-52.4V186.9z"/>
	<path d="M296.5,187.2h2.1h2.6h2.1l0.7,1.8l30.5,83.2l1.5,3.9h-4.1h-3.1h-2l-0.7-1.8l-8.2-21.9h-36.3l-8,21.9l-0.7,1.8h-2.1h-3h-4.1
		l1.4-3.9l30.7-83.2L296.5,187.2z M284.9,243.6h30l-15-40.7L284.9,243.6z"/>
	<path d="M342.8,187.3h2.9h19.4c9.6,0,17.2,3.1,23,9.2c5.2,5.5,7.8,12.2,7.8,20.1c0,7.9-2.6,14.6-7.8,20.1c-2.1,2.2-4.6,4.1-7.4,5.5
		l20.2,29.4l3.1,4.5h-5.5h-3.4h-1.5l-0.9-1.3l-20.4-29.7c-2.3,0.5-4.7,0.7-7.1,0.7h-13.7v27.4v2.9h-2.9h-2.9h-2.9v-2.9v-82.9V187.3z
		 M351.4,237.2h13.7c7,0,12.6-2.1,16.8-6.4c3.6-3.8,5.4-8.5,5.4-14.1c0-5.6-1.8-10.3-5.4-14.1c-4.1-4.3-9.7-6.4-16.8-6.4h-13.7
		V237.2z"/>
	<path d="M399.3,187.3h2.9h64.3h2.9v2.9v2.9v2.9h-2.9h-27.9v77.3v2.9h-2.8h-3h-2.8v-2.9v-77.3h-27.9h-2.9v-2.9v-2.9V187.3z"/>
	<path d="M483.1,187.1h2.9h47.4h2.8v2.9v2.9v2.9h-2.8h-41.7v38.5h41.7h2.8v2.9v2.9v2.9h-2.8h-41.7v24.7h41.7h2.8v2.9v2.9v2.9h-2.8
		H486h-2.9v-2.9V190V187.1z"/>
	<path d="M554.6,187.3h2.9h19.4c9.6,0,17.2,3.1,23,9.2c5.2,5.5,7.8,12.2,7.8,20.1c0,7.9-2.6,14.6-7.8,20.1c-2.1,2.2-4.6,4.1-7.4,5.5
		l20.2,29.4l3.1,4.5h-5.5h-3.4h-1.5l-0.9-1.3L584,245.1c-2.3,0.5-4.7,0.7-7.1,0.7h-13.7v27.4v2.9h-2.9h-2.9h-2.9v-2.9v-82.9V187.3z
		 M563.2,237.2h13.7c7,0,12.6-2.1,16.8-6.4c3.6-3.8,5.4-8.5,5.4-14.1c0-5.6-1.8-10.3-5.4-14.1c-4.1-4.3-9.7-6.4-16.8-6.4h-13.7
		V237.2z"/>
	<path d="M657.8,187.9c3.6,1.4,6.4,3.2,8.6,5.4c2.1,2.2,3.8,4.6,5.1,7.1c1.2,2.5,1.9,5.1,2.1,7.7l0.1,2.9l-2.8,0.2l-2.9,0.1
		l-2.9,0.2l-0.2-2.9c-0.1-1.5-0.5-3.1-1.1-4.7c-0.7-1.6-1.7-3.1-3.1-4.6c-1.4-1.5-3.3-2.7-5.9-3.6c-2.5-0.9-5.5-1.4-8.8-1.5
		c-5.9,0-10.6,1.3-14,3.9c-3.1,2.5-4.7,5.8-4.8,10c0.1,2.8,0.6,5.2,1.6,7c1,1.8,2.4,3.5,4.4,5.1c2.8,2.1,7.9,4.4,15.5,7.1
		c3.1,1.1,5.2,1.8,6.4,2.2c1.2,0.4,2.9,1.2,5.3,2.3c2.3,1.1,4.3,2.3,5.9,3.5c6.1,4.4,9.2,10.5,9.2,18.1c0.1,2.5-0.5,5-1.7,7.5
		c-1.2,2.6-2.9,5-5.2,7.2c-2.3,2.3-5.4,4.1-9.3,5.6c-3.9,1.5-8.3,2.2-13.1,2.2c-8.3,0-15.6-2.5-21.7-7.4c-3.1-2.5-5.5-5.6-7.3-9.2
		c-1.8-3.6-2.6-7.6-2.5-11.9l0.1-2.9h2.9l2.9,0.1l2.9,0.1l-0.1,2.9c-0.2,5.7,2.1,10.5,6.7,14.1c4.4,3.7,9.8,5.5,16.2,5.5
		c3.8,0,7.2-0.5,10.1-1.6c2.9-1,5.1-2.3,6.5-3.9c1.4-1.6,2.5-3.1,3.2-4.5c0.7-1.4,1-2.7,0.9-3.8c0-2.8-0.4-5-1.3-6.7
		c-0.9-1.7-2.3-3.3-4.3-4.7c-2.6-1.8-7.7-4.1-15.4-6.9c-2.8-1-5-1.8-6.4-2.3c-1.4-0.5-3.3-1.4-5.6-2.5c-2.3-1.1-4.3-2.3-5.9-3.6
		c-6.2-4.7-9.3-11-9.4-18.9c0.2-7,2.9-12.6,8.2-16.7c5-3.8,11.4-5.7,19.4-5.7C650.3,185.8,654.2,186.5,657.8,187.9z"/>
	<g>
		<path d="M35.8,89.2h3h1.5l0.9,1.3L88,160.6V92.1v-2.9h2.9h2.9h2.9v2.9V140v34.8v2.9h-3h-3H89l-0.9-1.3l-46.7-70.1v68.5v2.9h-2.9
			h-2.9h-2.9v-2.9V92.1v-2.9H35.8z"/>
		<path d="M148.1,88.1c23.6,0,42.4,20.3,42.4,44.8c0,24.5-18.8,44.8-42.4,44.8s-42.4-20.3-42.4-44.8
			C105.8,108.3,124.6,88.1,148.1,88.1z M148.1,96.7c-18.5,0-33.8,16-33.8,36.2c0,20.2,15.3,36.2,33.8,36.2s33.8-16,33.8-36.2
			C181.9,112.7,166.6,96.7,148.1,96.7z"/>
		<path d="M199.7,91.8V89h2.9h19.4c9.9,0,17.8,3.6,23,9.1c5.2,5.5,7.8,12.9,7.8,20.1c0,7.2-2.6,14.5-7.8,20.1
			c-2.1,2.2-4.4,4-7.4,5.5l20.2,29.4l3.1,4.5h-5.5h-3.5h-1.5l-0.9-1.2l-20.4-29.7c-2.1,0.4-4.7,0.7-7.2,0.7h-13.6v27.4v2.9h-2.9
			h-2.9h-2.9v-2.9V91.8z M208.3,97.6v41.2h13.6c7.8,0,13.2-2.7,16.8-6.4c3.6-3.8,5.5-8.9,5.5-14.2c0-5.2-1.9-10.4-5.5-14.2
			c-3.6-3.8-8.9-6.4-16.8-6.4H208.3z"/>
		<path d="M258.5,91.8v-2.9h2.9h64.3h2.9v2.9v2.9v2.9h-2.9h-27.9v77.3v2.9H295h-2.9h-2.9v-2.9V97.5h-27.9h-2.9v-2.9V91.8z"/>
		<path d="M340,92.1v-2.9h2.9h2.9h2.9v2.9v43.7h41.9V92.1v-2.9h2.9h2.9h2.9v2.9v82.7v2.9h-2.9h-2.9h-2.9v-2.9v-30.4h-41.9v30.4v2.9
			h-2.9h-2.9H340v-2.9V92.1z"/>
		<path d="M413,91.5v-2.9h2.9h47.4h2.9v2.9v2.9v2.9h-2.9h-41.6v38.5h41.6h2.9v2.9v2.9v2.9h-2.9h-41.6v24.7h41.6h2.9v2.9v2.9v2.9
			h-2.9h-47.4H413v-2.9V91.5z"/>
		<path d="M479.8,91.8V89h2.9H502c9.9,0,17.8,3.6,23,9.1c5.2,5.5,7.8,12.9,7.8,20.1c0,7.2-2.6,14.5-7.8,20.1c-2.1,2.2-4.4,4-7.4,5.5
			l20.2,29.4l3.1,4.5h-5.5h-3.5h-1.5l-0.9-1.2l-20.4-29.7c-2.1,0.4-4.7,0.7-7.2,0.7h-13.6v27.4v2.9h-2.9h-2.9h-2.9v-2.9V91.8z
			 M488.4,97.6v41.2H502c7.8,0,13.2-2.7,16.8-6.4c3.6-3.8,5.5-8.9,5.5-14.2c0-5.2-1.9-10.4-5.5-14.2c-3.6-3.8-8.9-6.4-16.8-6.4
			H488.4z"/>
		<path d="M555.4,89.2h3h1.5l0.9,1.3l46.7,70.1V92.1v-2.9h2.9h2.9h2.9v2.9V140v34.8v2.9h-3h-3h-1.5l-0.9-1.3L561,106.3v68.5v2.9
			h-2.9h-2.9h-2.9v-2.9V92.1v-2.9H555.4z"/>
	</g>
	<polygon points="166,268.5 169.1,259.3 192.2,282.4 186,288.5 	"/>
	<polygon points="152.2,227.4 152.2,51.8 170.3,69.9 176.1,64.1 148.5,36.5 121,64.1 126.8,69.9 144.3,52.4 144.3,235.3 
		184.4,235.7 184.4,227.8 	"/>
</g>
</svg>
